<svg id="svg" version="1.1" xmlns="http://www.w3.org/2000/svg" xmlns:xlink="http://www.w3.org/1999/xlink" width="400" height="400" viewBox="0, 0, 400,400"><g id="svgg"><path id="path0" d="M101.467 33.467 C 101.320 33.613,101.200 48.443,101.200 66.422 C 101.200 98.010,101.174 99.143,100.435 100.056 L 99.671 101.000 67.041 101.109 L 34.411 101.218 34.195 102.109 C 34.077 102.599,34.029 117.580,34.090 135.400 L 34.200 167.800 200.600 167.800 L 367.000 167.800 367.000 134.600 L 367.000 101.400 334.665 101.200 L 302.329 101.000 301.624 100.130 C 300.969 99.320,300.904 97.012,300.698 66.930 C 300.576 49.148,300.350 34.285,300.195 33.900 C 299.906 33.180,102.184 32.749,101.467 33.467 M101.464 240.900 C 101.052 249.910,101.159 300.916,101.591 301.600 C 101.922 302.124,106.037 302.214,133.942 302.307 C 161.338 302.399,165.983 302.497,166.396 302.996 C 166.756 303.430,166.987 311.596,167.301 335.089 C 167.595 357.059,167.856 366.689,168.162 366.894 C 168.403 367.056,183.090 367.188,200.800 367.188 C 218.510 367.188,233.197 367.056,233.438 366.894 C 233.744 366.689,234.005 357.059,234.299 335.089 C 234.616 311.383,234.842 303.432,235.209 302.989 C 235.632 302.479,239.996 302.400,267.560 302.400 C 296.348 302.400,299.512 302.337,300.352 301.749 L 301.282 301.098 301.119 268.638 C 301.030 250.785,300.821 235.958,300.655 235.689 C 300.418 235.306,278.887 235.200,201.039 235.200 L 101.724 235.200 101.464 240.900 " stroke="none" fill="#049be9" fill-rule="evenodd"></path><path id="path1" d="M0.000 200.000 L 0.000 400.000 200.000 400.000 L 400.000 400.000 400.000 200.000 L 400.000 0.000 200.000 0.000 L 0.000 0.000 0.000 200.000 M300.974 32.932 C 302.072 33.735,302.360 41.872,302.382 72.700 C 302.392 87.275,302.445 99.240,302.500 99.289 C 302.555 99.339,317.178 99.474,334.995 99.589 L 367.389 99.800 367.995 101.000 C 369.109 103.210,369.146 167.360,368.034 169.340 C 367.575 170.156,367.200 171.081,367.200 171.395 C 367.200 172.974,364.264 175.090,361.400 175.575 C 356.371 176.426,39.412 175.996,37.600 175.135 C 35.740 174.252,34.732 173.075,33.429 170.269 L 32.347 167.937 32.473 134.533 L 32.600 101.129 33.544 100.364 C 34.456 99.626,35.566 99.600,65.594 99.600 C 82.702 99.600,97.262 99.488,97.950 99.350 L 99.200 99.100 99.220 72.850 C 99.244 41.944,99.533 33.731,100.622 32.934 C 101.707 32.141,299.889 32.138,300.974 32.932 M301.256 234.364 L 302.200 235.129 302.321 269.080 C 302.440 302.826,302.436 303.036,301.621 303.976 C 301.169 304.497,300.800 305.164,300.800 305.460 C 300.800 305.756,300.161 306.705,299.379 307.570 C 297.193 309.990,297.067 310.000,268.080 310.002 C 239.625 310.005,240.085 309.968,237.358 312.481 L 235.600 314.102 235.600 340.686 L 235.600 367.270 234.160 369.845 C 233.368 371.262,232.077 372.911,231.291 373.510 L 229.863 374.600 201.866 374.711 C 177.099 374.808,173.648 374.747,171.947 374.182 C 170.183 373.597,168.000 371.704,168.000 370.761 C 168.000 370.554,167.550 369.671,167.000 368.800 L 166.000 367.216 166.000 340.689 L 166.000 314.162 164.500 312.728 C 161.699 310.051,163.601 310.219,133.600 310.000 C 118.103 309.887,105.852 309.639,105.400 309.429 C 103.700 308.642,102.064 307.115,101.602 305.885 C 101.336 305.178,100.939 304.217,100.719 303.750 C 100.083 302.401,100.473 235.659,101.123 234.500 L 101.628 233.600 200.970 233.600 C 298.177 233.600,300.332 233.616,301.256 234.364 " stroke="none" fill="#fbfbfb" fill-rule="evenodd"></path><path id="path2" d="M100.700 43.963 C 100.243 51.515,100.344 100.337,100.815 99.531 C 101.062 99.108,101.167 87.863,101.103 68.931 C 101.039 50.365,100.886 40.884,100.700 43.963 M300.744 69.000 C 300.825 85.804,301.047 99.264,301.249 99.600 C 301.680 100.317,301.368 47.932,300.910 42.600 C 300.739 40.620,300.665 52.500,300.744 69.000 M35.840 168.561 C 36.233 169.585,36.918 169.589,200.250 169.595 C 362.893 169.600,364.966 169.587,365.362 168.555 C 365.543 168.082,341.151 168.000,200.600 168.000 C 59.276 168.000,35.656 168.080,35.840 168.561 M151.300 235.100 C 178.525 235.157,223.075 235.157,250.300 235.100 C 277.525 235.043,255.250 234.997,200.800 234.997 C 146.350 234.997,124.075 235.043,151.300 235.100 M101.344 239.200 C 101.344 241.290,101.412 242.145,101.494 241.100 C 101.576 240.055,101.576 238.345,101.494 237.300 C 101.412 236.255,101.344 237.110,101.344 239.200 M301.141 268.449 L 301.282 301.098 300.352 301.749 C 299.512 302.337,296.348 302.400,267.560 302.400 C 239.996 302.400,235.632 302.479,235.209 302.989 C 234.842 303.432,234.616 311.383,234.299 335.089 C 234.005 357.059,233.744 366.689,233.438 366.894 C 233.197 367.056,218.510 367.188,200.800 367.188 C 183.090 367.188,168.403 367.056,168.162 366.894 C 167.856 366.689,167.595 357.059,167.301 335.089 C 166.987 311.596,166.756 303.430,166.396 302.996 C 165.983 302.497,161.338 302.399,133.942 302.307 C 106.037 302.214,101.922 302.124,101.591 301.600 C 101.286 301.116,101.211 301.172,101.206 301.886 C 101.195 303.486,101.811 303.519,134.068 303.661 C 151.374 303.738,165.683 303.949,165.865 304.131 C 166.047 304.313,166.262 318.497,166.343 335.651 L 166.490 366.840 167.527 367.520 C 169.693 368.940,233.904 368.650,234.790 367.216 C 234.967 366.930,235.177 352.694,235.258 335.580 C 235.338 318.465,235.553 304.313,235.735 304.131 C 235.917 303.949,250.449 303.741,268.029 303.669 L 299.991 303.538 300.796 302.515 C 301.632 301.451,301.962 257.238,301.251 241.400 C 301.113 238.320,301.063 250.492,301.141 268.449 " stroke="none" fill="#93bccd" fill-rule="evenodd"></path><path id="path3" d="M302.134 46.800 C 302.134 48.450,302.205 49.125,302.291 48.300 C 302.378 47.475,302.378 46.125,302.291 45.300 C 302.205 44.475,302.134 45.150,302.134 46.800 M99.389 71.800 C 99.389 86.980,99.439 93.132,99.500 85.471 C 99.561 77.810,99.561 65.390,99.500 57.871 C 99.439 50.352,99.389 56.620,99.389 71.800 M367.667 168.511 L 366.778 169.400 200.889 169.400 C 48.075 169.400,34.900 169.348,33.730 168.745 C 32.554 168.139,32.481 168.139,32.754 168.745 C 32.916 169.105,33.370 170.120,33.763 171.000 C 34.675 173.044,35.839 174.298,37.600 175.135 C 39.412 175.996,356.371 176.426,361.400 175.575 C 364.264 175.090,367.200 172.974,367.200 171.395 C 367.200 171.081,367.569 170.168,368.020 169.365 C 369.003 167.614,368.875 167.303,367.667 168.511 M100.497 273.476 C 100.443 290.243,100.554 303.648,100.748 303.768 C 100.940 303.886,101.209 304.544,101.346 305.229 C 101.610 306.551,103.511 308.587,105.189 309.344 C 105.900 309.665,114.337 309.859,133.600 310.000 C 163.601 310.219,161.699 310.051,164.500 312.728 L 166.000 314.162 166.000 340.689 L 166.000 367.216 167.000 368.800 C 167.550 369.671,168.000 370.554,168.000 370.761 C 168.000 371.704,170.183 373.597,171.947 374.182 C 173.648 374.747,177.099 374.808,201.866 374.711 L 229.863 374.600 231.291 373.510 C 232.077 372.911,233.368 371.262,234.160 369.845 L 235.600 367.270 235.600 340.686 L 235.600 314.102 237.358 312.481 C 240.085 309.968,239.625 310.005,268.080 310.002 C 297.067 310.000,297.193 309.990,299.379 307.570 C 300.161 306.705,300.800 305.756,300.800 305.460 C 300.800 305.164,301.160 304.507,301.600 304.000 C 302.040 303.493,302.389 302.700,302.375 302.239 C 302.350 301.420,302.341 301.421,301.992 302.288 C 301.461 303.608,302.214 303.577,267.933 303.693 C 250.406 303.752,235.917 303.949,235.735 304.131 C 235.553 304.313,235.338 318.465,235.258 335.580 C 235.177 352.694,234.967 366.930,234.790 367.216 C 233.904 368.650,169.693 368.940,167.527 367.520 L 166.490 366.840 166.343 335.651 C 166.262 318.497,166.047 304.313,165.865 304.131 C 165.683 303.949,151.156 303.738,133.584 303.662 C 108.649 303.555,101.544 303.415,101.220 303.024 C 100.944 302.691,100.770 292.642,100.700 272.962 L 100.595 243.400 100.497 273.476 " stroke="none" fill="#c8c8c8" fill-rule="evenodd"></path><path id="path4" d="M100.576 32.968 C 99.820 33.520,99.797 34.396,99.689 66.317 L 99.578 99.099 98.089 99.345 C 97.270 99.480,82.625 99.593,65.544 99.596 C 35.569 99.600,34.456 99.627,33.544 100.364 L 32.600 101.129 32.474 134.494 C 32.335 171.055,32.170 168.534,34.738 169.048 C 36.280 169.356,36.479 168.562,35.000 168.000 L 34.000 167.620 34.000 135.043 C 34.000 117.125,34.109 102.181,34.243 101.833 C 34.461 101.264,37.686 101.196,66.343 101.160 C 83.864 101.138,98.650 100.995,99.200 100.842 L 100.200 100.564 100.493 70.182 C 100.654 53.472,100.924 38.360,101.093 36.600 L 101.400 33.400 200.800 33.400 L 300.200 33.400 300.720 39.800 C 301.042 43.757,301.319 56.507,301.447 73.200 C 301.576 90.061,301.801 100.350,302.047 100.600 C 302.299 100.857,313.998 101.072,334.720 101.200 L 367.000 101.400 367.102 134.509 L 367.205 167.618 366.202 167.999 C 365.651 168.209,365.200 168.565,365.200 168.790 C 365.200 169.569,367.064 169.197,367.965 168.238 L 368.869 167.275 368.734 134.738 C 368.618 106.669,368.517 102.035,367.995 101.000 L 367.389 99.800 334.995 99.589 C 317.178 99.474,302.555 99.339,302.500 99.289 C 302.445 99.240,302.385 88.625,302.366 75.700 C 302.320 43.298,302.015 33.692,301.009 32.957 C 299.853 32.112,101.734 32.122,100.576 32.968 M101.214 234.374 C 100.938 234.889,100.800 246.396,100.800 268.894 C 100.800 303.085,100.822 303.627,102.180 303.588 C 102.411 303.581,102.285 303.392,101.900 303.168 C 101.007 302.648,100.792 236.168,101.680 235.280 C 102.627 234.333,299.280 234.613,300.453 235.562 L 301.394 236.325 301.542 268.803 L 301.690 301.282 300.833 302.441 C 299.911 303.688,300.171 303.948,301.424 303.032 C 302.182 302.478,302.200 301.662,302.200 268.797 L 302.200 235.129 301.256 234.365 C 299.761 233.155,101.862 233.164,101.214 234.374 " stroke="none" fill="#98d5f1" fill-rule="evenodd"></path></g></svg>